<svg width="203" height="47" viewBox="0 0 203 47" fill="none" xmlns="http://www.w3.org/2000/svg">
<path d="M66.7148 8.5625H77.0469C79.2083 8.5625 81.0638 8.88802 82.6133 9.53906C84.1628 10.1901 85.3542 11.1536 86.1875 12.4297C87.0208 13.7057 87.4375 15.2747 87.4375 17.1367C87.4375 18.6081 87.1771 19.8841 86.6562 20.9648C86.1354 22.0456 85.3997 22.9505 84.4492 23.6797C83.5117 24.4089 82.4049 24.9818 81.1289 25.3984L79.4492 26.2578H70.3281L70.2891 22.0195H77.1055C78.2122 22.0195 79.1302 21.8242 79.8594 21.4336C80.5885 21.043 81.1354 20.5026 81.5 19.8125C81.8776 19.1224 82.0664 18.3346 82.0664 17.4492C82.0664 16.4987 81.8841 15.6784 81.5195 14.9883C81.1549 14.2852 80.6016 13.7448 79.8594 13.3672C79.1172 12.9896 78.1797 12.8008 77.0469 12.8008H72.0859V37H66.7148V8.5625ZM82.7695 37L76.1875 24.2656L81.8711 24.2461L88.5312 36.7266V37H82.7695ZM96.8125 7V37H91.6367V7H96.8125ZM95.9922 25.6719H94.4688C94.4688 24.2005 94.6641 22.8464 95.0547 21.6094C95.4453 20.3724 95.9987 19.2982 96.7148 18.3867C97.431 17.4622 98.2839 16.7461 99.2734 16.2383C100.276 15.7305 101.383 15.4766 102.594 15.4766C103.635 15.4766 104.579 15.6263 105.426 15.9258C106.285 16.2122 107.021 16.6745 107.633 17.3125C108.245 17.9505 108.714 18.7839 109.039 19.8125C109.378 20.8281 109.547 22.0651 109.547 23.5234V37H104.352V23.4844C104.352 22.5078 104.208 21.7396 103.922 21.1797C103.635 20.6068 103.225 20.1966 102.691 19.9492C102.171 19.7018 101.526 19.5781 100.758 19.5781C99.9245 19.5781 99.2083 19.7409 98.6094 20.0664C98.0104 20.3789 97.5156 20.8151 97.125 21.375C96.7474 21.9349 96.4609 22.5794 96.2656 23.3086C96.0833 24.0378 95.9922 24.8255 95.9922 25.6719ZM120.289 34.6562L125.953 15.8672H131.48L123.004 40.2031C122.809 40.724 122.555 41.2904 122.242 41.9023C121.943 42.5143 121.539 43.0938 121.031 43.6406C120.523 44.2005 119.885 44.6562 119.117 45.0078C118.362 45.3594 117.444 45.5352 116.363 45.5352C115.895 45.5352 115.478 45.5026 115.113 45.4375C114.749 45.3724 114.365 45.2878 113.961 45.1836V41.3164C114.091 41.3294 114.241 41.3359 114.41 41.3359C114.592 41.349 114.749 41.3555 114.879 41.3555C115.634 41.3555 116.259 41.2643 116.754 41.082C117.249 40.9128 117.646 40.6328 117.945 40.2422C118.258 39.8646 118.518 39.3698 118.727 38.7578L120.289 34.6562ZM117.496 15.8672L122.281 31.4336L123.121 36.8828L119.566 37.5273L111.93 15.8672H117.496ZM143.98 15.8672V19.5781H131.871V15.8672H143.98ZM135.113 10.6719H140.289V30.9062C140.289 31.5312 140.374 32.013 140.543 32.3516C140.712 32.6901 140.966 32.918 141.305 33.0352C141.643 33.1523 142.047 33.2109 142.516 33.2109C142.854 33.2109 143.167 33.1914 143.453 33.1523C143.74 33.1133 143.98 33.0742 144.176 33.0352L144.195 36.9023C143.766 37.0456 143.277 37.1628 142.73 37.2539C142.197 37.3451 141.591 37.3906 140.914 37.3906C139.755 37.3906 138.74 37.1953 137.867 36.8047C136.995 36.401 136.318 35.7565 135.836 34.8711C135.354 33.9727 135.113 32.7878 135.113 31.3164V10.6719ZM152.477 7V37H147.301V7H152.477ZM151.656 25.6719H150.133C150.133 24.2005 150.328 22.8464 150.719 21.6094C151.109 20.3724 151.663 19.2982 152.379 18.3867C153.095 17.4622 153.948 16.7461 154.938 16.2383C155.94 15.7305 157.047 15.4766 158.258 15.4766C159.299 15.4766 160.243 15.6263 161.09 15.9258C161.949 16.2122 162.685 16.6745 163.297 17.3125C163.909 17.9505 164.378 18.7839 164.703 19.8125C165.042 20.8281 165.211 22.0651 165.211 23.5234V37H160.016V23.4844C160.016 22.5078 159.872 21.7396 159.586 21.1797C159.299 20.6068 158.889 20.1966 158.355 19.9492C157.835 19.7018 157.19 19.5781 156.422 19.5781C155.589 19.5781 154.872 19.7409 154.273 20.0664C153.674 20.3789 153.18 20.8151 152.789 21.375C152.411 21.9349 152.125 22.5794 151.93 23.3086C151.747 24.0378 151.656 24.8255 151.656 25.6719ZM174.898 20.2031V37H169.742V15.8672H174.605L174.898 20.2031ZM174.137 25.6719H172.555C172.555 24.2005 172.73 22.8464 173.082 21.6094C173.447 20.3724 173.98 19.2982 174.684 18.3867C175.387 17.4622 176.253 16.7461 177.281 16.2383C178.323 15.7305 179.527 15.4766 180.895 15.4766C181.845 15.4766 182.717 15.6198 183.512 15.9062C184.306 16.1797 184.99 16.6159 185.562 17.2148C186.148 17.8008 186.598 18.569 186.91 19.5195C187.223 20.457 187.379 21.5833 187.379 22.8984V37H182.223V23.4258C182.223 22.4362 182.079 21.6615 181.793 21.1016C181.52 20.5417 181.122 20.151 180.602 19.9297C180.081 19.6953 179.456 19.5781 178.727 19.5781C177.919 19.5781 177.223 19.7409 176.637 20.0664C176.064 20.3789 175.589 20.8151 175.211 21.375C174.846 21.9349 174.573 22.5794 174.391 23.3086C174.221 24.0378 174.137 24.8255 174.137 25.6719ZM186.988 24.7148L184.859 25.1055C184.872 23.7773 185.055 22.5339 185.406 21.375C185.758 20.2031 186.272 19.181 186.949 18.3086C187.639 17.4232 188.492 16.7331 189.508 16.2383C190.536 15.7305 191.721 15.4766 193.062 15.4766C194.104 15.4766 195.042 15.6263 195.875 15.9258C196.721 16.2122 197.444 16.6745 198.043 17.3125C198.642 17.9375 199.098 18.7513 199.41 19.7539C199.736 20.7565 199.898 21.9805 199.898 23.4258V37H194.703V23.4062C194.703 22.3776 194.56 21.5898 194.273 21.043C194 20.4961 193.603 20.1185 193.082 19.9102C192.561 19.6888 191.949 19.5781 191.246 19.5781C190.53 19.5781 189.905 19.7148 189.371 19.9883C188.85 20.2487 188.408 20.6133 188.043 21.082C187.691 21.5508 187.424 22.0977 187.242 22.7227C187.073 23.3346 186.988 23.9987 186.988 24.7148Z" fill="#121212"/>
<path fill-rule="evenodd" clip-rule="evenodd" d="M20.2139 25.0374C19.6652 35.5241 10.8456 43.878 0 44V4C10.8456 4.12209 19.6652 12.4759 20.2139 22.9626C20.7553 12.6141 29.3512 4.34272 40 4.00915V43.991C29.3512 43.6574 20.7553 35.386 20.2139 25.0374Z" fill="#FF6428"/>
</svg>
