<svg width="123" height="29" viewBox="0 0 123 29" fill="none" xmlns="http://www.w3.org/2000/svg">
<path d="M41.6289 4.9375H47.8281C49.125 4.9375 50.2383 5.13281 51.168 5.52344C52.0977 5.91406 52.8125 6.49219 53.3125 7.25781C53.8125 8.02344 54.0625 8.96484 54.0625 10.082C54.0625 10.9648 53.9062 11.7305 53.5938 12.3789C53.2812 13.0273 52.8398 13.5703 52.2695 14.0078C51.707 14.4453 51.043 14.7891 50.2773 15.0391L49.2695 15.5547H43.7969L43.7734 13.0117H47.8633C48.5273 13.0117 49.0781 12.8945 49.5156 12.6602C49.9531 12.4258 50.2812 12.1016 50.5 11.6875C50.7266 11.2734 50.8398 10.8008 50.8398 10.2695C50.8398 9.69922 50.7305 9.20703 50.5117 8.79297C50.293 8.37109 49.9609 8.04688 49.5156 7.82031C49.0703 7.59375 48.5078 7.48047 47.8281 7.48047H44.8516V22H41.6289V4.9375ZM51.2617 22L47.3125 14.3594L50.7227 14.3477L54.7188 21.8359V22H51.2617ZM59.6875 4V22H56.582V4H59.6875ZM59.1953 15.2031H58.2812C58.2812 14.3203 58.3984 13.5078 58.6328 12.7656C58.8672 12.0234 59.1992 11.3789 59.6289 10.832C60.0586 10.2773 60.5703 9.84766 61.1641 9.54297C61.7656 9.23828 62.4297 9.08594 63.1562 9.08594C63.7812 9.08594 64.3477 9.17578 64.8555 9.35547C65.3711 9.52734 65.8125 9.80469 66.1797 10.1875C66.5469 10.5703 66.8281 11.0703 67.0234 11.6875C67.2266 12.2969 67.3281 13.0391 67.3281 13.9141V22H64.2109V13.8906C64.2109 13.3047 64.125 12.8438 63.9531 12.5078C63.7812 12.1641 63.5352 11.918 63.2148 11.7695C62.9023 11.6211 62.5156 11.5469 62.0547 11.5469C61.5547 11.5469 61.125 11.6445 60.7656 11.8398C60.4062 12.0273 60.1094 12.2891 59.875 12.625C59.6484 12.9609 59.4766 13.3477 59.3594 13.7852C59.25 14.2227 59.1953 14.6953 59.1953 15.2031ZM73.7734 20.5938L77.1719 9.32031H80.4883L75.4023 23.9219C75.2852 24.2344 75.1328 24.5742 74.9453 24.9414C74.7656 25.3086 74.5234 25.6562 74.2188 25.9844C73.9141 26.3203 73.5312 26.5938 73.0703 26.8047C72.6172 27.0156 72.0664 27.1211 71.418 27.1211C71.1367 27.1211 70.8867 27.1016 70.668 27.0625C70.4492 27.0234 70.2188 26.9727 69.9766 26.9102V24.5898C70.0547 24.5977 70.1445 24.6016 70.2461 24.6016C70.3555 24.6094 70.4492 24.6133 70.5273 24.6133C70.9805 24.6133 71.3555 24.5586 71.6523 24.4492C71.9492 24.3477 72.1875 24.1797 72.3672 23.9453C72.5547 23.7188 72.7109 23.4219 72.8359 23.0547L73.7734 20.5938ZM72.0977 9.32031L74.9688 18.6602L75.4727 21.9297L73.3398 22.3164L68.7578 9.32031H72.0977ZM87.9883 9.32031V11.5469H80.7227V9.32031H87.9883ZM82.668 6.20312H85.7734V18.3438C85.7734 18.7188 85.8242 19.0078 85.9258 19.2109C86.0273 19.4141 86.1797 19.5508 86.3828 19.6211C86.5859 19.6914 86.8281 19.7266 87.1094 19.7266C87.3125 19.7266 87.5 19.7148 87.6719 19.6914C87.8438 19.668 87.9883 19.6445 88.1055 19.6211L88.1172 21.9414C87.8594 22.0273 87.5664 22.0977 87.2383 22.1523C86.918 22.207 86.5547 22.2344 86.1484 22.2344C85.4531 22.2344 84.8438 22.1172 84.3203 21.8828C83.7969 21.6406 83.3906 21.2539 83.1016 20.7227C82.8125 20.1836 82.668 19.4727 82.668 18.5898V6.20312ZM93.0859 4V22H89.9805V4H93.0859ZM92.5938 15.2031H91.6797C91.6797 14.3203 91.7969 13.5078 92.0312 12.7656C92.2656 12.0234 92.5977 11.3789 93.0273 10.832C93.457 10.2773 93.9688 9.84766 94.5625 9.54297C95.1641 9.23828 95.8281 9.08594 96.5547 9.08594C97.1797 9.08594 97.7461 9.17578 98.2539 9.35547C98.7695 9.52734 99.2109 9.80469 99.5781 10.1875C99.9453 10.5703 100.227 11.0703 100.422 11.6875C100.625 12.2969 100.727 13.0391 100.727 13.9141V22H97.6094V13.8906C97.6094 13.3047 97.5234 12.8438 97.3516 12.5078C97.1797 12.1641 96.9336 11.918 96.6133 11.7695C96.3008 11.6211 95.9141 11.5469 95.4531 11.5469C94.9531 11.5469 94.5234 11.6445 94.1641 11.8398C93.8047 12.0273 93.5078 12.2891 93.2734 12.625C93.0469 12.9609 92.875 13.3477 92.7578 13.7852C92.6484 14.2227 92.5938 14.6953 92.5938 15.2031ZM106.539 11.9219V22H103.445V9.32031H106.363L106.539 11.9219ZM106.082 15.2031H105.133C105.133 14.3203 105.238 13.5078 105.449 12.7656C105.668 12.0234 105.988 11.3789 106.41 10.832C106.832 10.2773 107.352 9.84766 107.969 9.54297C108.594 9.23828 109.316 9.08594 110.137 9.08594C110.707 9.08594 111.23 9.17188 111.707 9.34375C112.184 9.50781 112.594 9.76953 112.938 10.1289C113.289 10.4805 113.559 10.9414 113.746 11.5117C113.934 12.0742 114.027 12.75 114.027 13.5391V22H110.934V13.8555C110.934 13.2617 110.848 12.7969 110.676 12.4609C110.512 12.125 110.273 11.8906 109.961 11.7578C109.648 11.6172 109.273 11.5469 108.836 11.5469C108.352 11.5469 107.934 11.6445 107.582 11.8398C107.238 12.0273 106.953 12.2891 106.727 12.625C106.508 12.9609 106.344 13.3477 106.234 13.7852C106.133 14.2227 106.082 14.6953 106.082 15.2031ZM113.793 14.6289L112.516 14.8633C112.523 14.0664 112.633 13.3203 112.844 12.625C113.055 11.9219 113.363 11.3086 113.77 10.7852C114.184 10.2539 114.695 9.83984 115.305 9.54297C115.922 9.23828 116.633 9.08594 117.438 9.08594C118.062 9.08594 118.625 9.17578 119.125 9.35547C119.633 9.52734 120.066 9.80469 120.426 10.1875C120.785 10.5625 121.059 11.0508 121.246 11.6523C121.441 12.2539 121.539 12.9883 121.539 13.8555V22H118.422V13.8438C118.422 13.2266 118.336 12.7539 118.164 12.4258C118 12.0977 117.762 11.8711 117.449 11.7461C117.137 11.6133 116.77 11.5469 116.348 11.5469C115.918 11.5469 115.543 11.6289 115.223 11.793C114.91 11.9492 114.645 12.168 114.426 12.4492C114.215 12.7305 114.055 13.0586 113.945 13.4336C113.844 13.8008 113.793 14.1992 113.793 14.6289Z" fill="#121212"/>
<path fill-rule="evenodd" clip-rule="evenodd" d="M14.1497 15.7262C13.7657 23.0669 7.59189 28.9146 0 29V1C7.59189 1.08547 13.7657 6.9331 14.1497 14.2738C14.5287 7.02987 20.5459 1.2399 28 1.0064V28.9937C20.5459 28.7602 14.5287 22.9702 14.1497 15.7262Z" fill="#FF6428"/>
</svg>
